<?xml version="1.0" encoding="utf-8"?>
<?xml-stylesheet type="text/xsl" href="rss1.xsl"?>
<rss version="2.0" xmlns:atom="http://www.w3.org/2005/Atom" xmlns:content="http://purl.org/rss/1.0/modules/content/" xmlns:dc="http://purl.org/dc/elements/1.1/" xmlns:media="http://search.yahoo.com/mrss/">
<channel>
 <title>Getty</title>
 <link>http://www.gettyimg.com/</link>
 <atom:link href="http://www.gettyimg.com/" rel="self" type="application/rss+xml" />

 
                <item>
                <title><![CDATA[【Albums (lossless)】FLAC - Juicy J, Wiz Khalifa &amp; Ty Dolla $ign -  Shell Shocked (feat. Kill the Noise &amp; Madsonik) (From "Teenage M | Qobuz 16bit / 44.1kHz]]></title>
                <link><![CDATA[https://sharemania.us/threads/juicy-j-wiz-khalifa-ty-dolla-ign-shell-shocked-feat-kill-the-noise-madsonik-from-teenage-m-qobuz-16bit-44-1khz.222958/]]></link>
                <description><![CDATA[<article>
<blockquote class="messageText SelectQuoteContainer ugc baseHtml">
<div style="text-align: center"><b><a href="https://imgbb.com/" target="_blank" class="externalLink" rel="nofollow"><img src="https://i.ibb.co/njcz04p/0075679936028-600.jpg" class="bbCodeImage LbImage" alt="[​IMG]" data-url="https://i.ibb.co/njcz04p/0075679936028-600.jpg"></a><br>
Juicy J, Wiz Khalifa &amp; Ty Dolla $ign - Shell Shocked (feat. Kill the Noise &amp; Madsonik) (From "Teenage Mutant Ninja Turtles")</b><br>
​</div><b><div style="text-align: center"><b>Label: </b>Atlantic Records<br>
<b>Year:</b> 2014-07-22<br>
<b>Genre:</b> Pop​</div></b><br>
<div style="text-align: center"><br>
<b>Track: <br>
1. Shell Shocked (feat. Kill the Noise &amp; Madsonik) (From "Teenage Mutant Ninja Turtles")</b>​</div><b><div style="text-align: center">​</div></b><br>
<div style="text-align: center">​</div><b><div style="text-align: center"><b>Total length:</b> 3:31​</div></b><br>
<div style="text-align: center"><br>
<br>
<div class="bbCodeBlock bbCodeVfcHH HiddenContent">
<div class="attribution type">Hidden Content:</div>
<blockquote>You must reply before you can see the hidden data contained here.</blockquote>
</div></div>
<div class="messageTextEndMarker">&nbsp;</div>
</blockquote>
</article>]]></description>
                <author><![CDATA[ihahar]]></author>
                </item>

                
                <item>
                <title><![CDATA[【SD】DVD - Beyoncé - B'Day (Music Videos) [LPCM Audio] 576i PAL MKV]]></title>
                <link><![CDATA[https://sharemania.us/threads/beyonc%C3%A9-bday-music-videos-lpcm-audio-576i-pal-mkv.222949/]]></link>
                <description><![CDATA[<article>
<blockquote class="messageText SelectQuoteContainer ugc baseHtml">
<div style="text-align: center"><img src="https://www.the-rhythm.com/sites/g/files/g2000009916/files/2021-09/Beyonc%C3%A9_-_B%27Day.png" class="bbCodeImage LbImage" alt="[​IMG]" data-url="https://www.the-rhythm.com/sites/g/files/g2000009916/files/2021-09/Beyonc%C3%A9_-_B%27Day.png" style=""><br>
1. Beautiful Liar (w/ Shakira)<br>
2. Irreplaceable<br>
3. Kitty Kat<br>
4. Green Light<br>
5. Upgrade U (feat. Jay-Z)<br>
6. Flaws And All<br>
7. Get Me Bodied (Extended Mix)<br>
8. Freakum Dress<br>
9. Suga Mama<br>
10. Deja Vu (feat. Jay-Z)<br>
11. Ring The Alarm<br>
12. Listen<br>
<div class="ToggleTriggerAnchor bbCodeSpoilerContainer">
<button type="button" class="button bbCodeSpoilerButton ToggleTrigger Tooltip JsOnly" data-target="> .SpoilerTarget"><span>Spoiler: <span class="SpoilerTitle">CODEC</span></span></button>
<div class="SpoilerTarget bbCodeSpoilerText">
<div class="bbCodeBlock bbCodeCode">
<div class="type">Code:</div>
<pre>Video
ID                               : 1
Format                           : MPEG Video
Format version                   : Version 2
Format profile                   : Main@Main
Format settings, Matrix          : Default
Codec ID                         : V_MPEG2
Codec ID/Info                    : MPEG 1 or 2 Video
Duration                         : 47mn 24s
Bit rate mode                    : Variable
Nominal bit rate                 : 8 000 Kbps
Width                            : 720 pixels
Height                           : 576 pixels
Display aspect ratio             : 4:3
Frame rate                       : 25.000 fps
Standard                         : PAL
Colorimetry                      : 4:2:0
Scan type                        : Interlaced
Scan order                       : Top Field First
Bits/(Pixel*Frame)               : 0.772

Audio
ID                               : 2
Format                           : PCM
Codec ID                         : A_PCM/INT/LIT
Duration                         : 47mn 24s
Bit rate mode                    : Constant
Channel(s)                       : 2 channels
Sampling rate                    : 48.0 KHz
Resolution                       : 16 bits
Video delay                      : -80ms
Title                            : Beyonce - B'day (Music Videos)
Language                         : English</pre>
</div></div>
</div><br>
<div class="bbCodeBlock bbCodeVfcHH HiddenContent">
<div class="attribution type">Hidden Content:</div>
<blockquote>You must either reply or click 'Like' to see the hidden information contained here.</blockquote>
</div></div>
<div class="messageTextEndMarker">&nbsp;</div>
</blockquote>
</article>]]></description>
                <author><![CDATA[curtisrice04]]></author>
                </item>

                
                <item>
                <title><![CDATA[【Apple Music】WEB-RiP - Elena - Antidot (1080p)]]></title>
                <link><![CDATA[https://sharemania.us/threads/elena-antidot-1080p.222957/]]></link>
                <description><![CDATA[<article>
<blockquote class="messageText SelectQuoteContainer ugc baseHtml">
<img src="https://i.imgur.com/5F4VIvZ.jpg" class="bbCodeImage LbImage" alt="[​IMG]" data-url="https://i.imgur.com/5F4VIvZ.jpg" style=""><br>
<br>
<div class="bbCodeBlock bbCodeCode">
<div class="type">Code:</div>
<pre>General
Complete name                  : C:\Users\asus\Desktop\Elena - Antidot.mp4
Format                         : MPEG-4
Format profile                 : Base Media
Codec ID                       : isom (isom/iso2/avc1/mp41)
File size                      : 191 MiB
Duration                       : 3 min 55 s
Overall bit rate               : 6 830 kb/s
Frame rate                     : 25.000 FPS
Movie name                     : Antidot
Performer                      : Elena
Genre                          : Pop
ContentType                    : Music Video
Recorded date                  : 2021-09-02 07:00:00 UTC
Writing application            : Lavf57.29.101
Copyright                      : ℗ 2016 Cat Music

Video
ID                             : 1
Format                         : AVC
Format/Info                    : Advanced Video Codec
Format profile                 : High@L4
Format settings                : CABAC / 5 Ref Frames
Format settings, CABAC         : Yes
Format settings, Reference fra : 5 frames
Codec ID                       : avc1
Codec ID/Info                  : Advanced Video Coding
Duration                       : 3 min 55 s
Bit rate                       : 6 565 kb/s
Width                          : 1 920 pixels
Height                         : 864 pixels
Display aspect ratio           : 2.222
Frame rate mode                : Constant
Frame rate                     : 25.000 FPS
Color space                    : YUV
Chroma subsampling             : 4:2:0
Bit depth                      : 8 bits
Scan type                      : Progressive
Bits/(Pixel*Frame)             : 0.158
Stream size                    : 184 MiB (96%)
Color range                    : Limited
Color primaries                : BT.709
Transfer characteristics       : BT.709
Matrix coefficients            : BT.709
Codec configuration box        : avcC

Audio
ID                             : 2
Format                         : AAC LC
Format/Info                    : Advanced Audio Codec Low Complexity
Codec ID                       : mp4a-40-2
Duration                       : 3 min 55 s
Bit rate mode                  : Constant
Bit rate                       : 265 kb/s
Channel(s)                     : 2 channels
Channel layout                 : L R
Sampling rate                  : 48.0 kHz
Frame rate                     : 46.875 FPS (1024 SPF)
Compression mode               : Lossy
Stream size                    : 7.31 MiB (4%)
Default                        : Yes
Alternate group                : 1

</pre>
</div>
<div class="bbCodeBlock bbCodeVfcHH HiddenContent">
<div class="attribution type">Hidden Content:</div>
<blockquote>You must either reply or click 'Like' to see the hidden information contained here.</blockquote>
</div>
<div class="messageTextEndMarker">&nbsp;</div>
</blockquote>
</article>]]></description>
                <author><![CDATA[vitalya3]]></author>
                </item>

                
                <item>
                <title><![CDATA[【Apple Music】WEB-RiP - MARIA ft Elena - Тихо (1080p)]]></title>
                <link><![CDATA[https://sharemania.us/threads/maria-ft-elena-%D0%A2%D0%B8%D1%85%D0%BE-1080p.222955/]]></link>
                <description><![CDATA[<article>
<blockquote class="messageText SelectQuoteContainer ugc baseHtml">
<img src="https://i.imgur.com/X6vgN8g.jpg" class="bbCodeImage LbImage" alt="[​IMG]" data-url="https://i.imgur.com/X6vgN8g.jpg" style=""><br>
<br>
<div class="bbCodeBlock bbCodeCode">
<div class="type">Code:</div>
<pre>General
Complete name                  : C:\Users\asus\Desktop\MARIA ft Elena - Тихо.mp4
Format                         : MPEG-4
Format profile                 : Base Media
Codec ID                       : isom (isom/iso2/avc1/mp41)
File size                      : 281 MiB
Duration                       : 3 min 55 s
Overall bit rate               : 10.0 Mb/s
Frame rate                     : 25.000 FPS
Movie name                     : Тихо (feat. Elena)
Performer                      : Maria
Genre                          : Pop
ContentType                    : Music Video
Recorded date                  : 2019-11-20 08:00:00 UTC
Writing application            : Lavf57.29.101
Copyright                      : ℗ 2015 Payner

Video
ID                             : 1
Format                         : AVC
Format/Info                    : Advanced Video Codec
Format profile                 : High@L4
Format settings                : CABAC / 4 Ref Frames
Format settings, CABAC         : Yes
Format settings, Reference fra : 4 frames
Codec ID                       : avc1
Codec ID/Info                  : Advanced Video Coding
Duration                       : 3 min 54 s
Bit rate                       : 9 789 kb/s
Width                          : 1 920 pixels
Height                         : 1 080 pixels
Display aspect ratio           : 16:9
Frame rate mode                : Constant
Frame rate                     : 25.000 FPS
Color space                    : YUV
Chroma subsampling             : 4:2:0
Bit depth                      : 8 bits
Scan type                      : Progressive
Bits/(Pixel*Frame)             : 0.189
Stream size                    : 274 MiB (97%)
Color range                    : Limited
Color primaries                : BT.709
Transfer characteristics       : BT.709
Matrix coefficients            : BT.709
Codec configuration box        : avcC

Audio
ID                             : 2
Format                         : AAC LC
Format/Info                    : Advanced Audio Codec Low Complexity
Codec ID                       : mp4a-40-2
Duration                       : 3 min 55 s
Bit rate mode                  : Constant
Bit rate                       : 252 kb/s
Channel(s)                     : 2 channels
Channel layout                 : L R
Sampling rate                  : 48.0 kHz
Frame rate                     : 46.875 FPS (1024 SPF)
Compression mode               : Lossy
Stream size                    : 7.05 MiB (3%)
Default                        : Yes
Alternate group                : 1

</pre>
</div>
<div class="bbCodeBlock bbCodeVfcHH HiddenContent">
<div class="attribution type">Hidden Content:</div>
<blockquote>You must either reply or click 'Like' to see the hidden information contained here.</blockquote>
</div>
<div class="messageTextEndMarker">&nbsp;</div>
</blockquote>
</article>]]></description>
                <author><![CDATA[vitalya3]]></author>
                </item>

                
                <item>
                <title><![CDATA[【Apple Music】WEB-RiP - Rihanna - You da One (Explicit) (1080p)]]></title>
                <link><![CDATA[https://sharemania.us/threads/rihanna-you-da-one-explicit-1080p.222954/]]></link>
                <description><![CDATA[<article>
<blockquote class="messageText SelectQuoteContainer ugc baseHtml">
<img src="https://i.imgur.com/z8fNSvA.jpg" class="bbCodeImage LbImage" alt="[​IMG]" data-url="https://i.imgur.com/z8fNSvA.jpg" style=""><br>
<br>
<div class="bbCodeBlock bbCodeCode">
<div class="type">Code:</div>
<pre>General
Complete name                  : C:\Users\asus\Desktop\Rihanna - You da One (Explicit).mp4
Format                         : MPEG-4
Format profile                 : Base Media
Codec ID                       : isom (isom/iso2/avc1/mp41)
File size                      : 258 MiB
Duration                       : 3 min 29 s
Overall bit rate               : 10.3 Mb/s
Frame rate                     : 25.000 FPS
Movie name                     : You da One (Explicit)
Performer                      : Rihanna
Genre                          : Pop
ContentType                    : Music Video
Recorded date                  : 2011-01-01 08:00:00 UTC
Writing application            : Lavf57.29.101
Copyright                      : ℗ 2011 The Island Def Jam Music Group

Video
ID                             : 1
Format                         : AVC
Format/Info                    : Advanced Video Codec
Format profile                 : High@L4
Format settings                : CABAC / 4 Ref Frames
Format settings, CABAC         : Yes
Format settings, Reference fra : 4 frames
Codec ID                       : avc1
Codec ID/Info                  : Advanced Video Coding
Duration                       : 3 min 29 s
Bit rate                       : 10.1 Mb/s
Width                          : 1 912 pixels
Height                         : 1 064 pixels
Display aspect ratio           : 16:9
Frame rate mode                : Constant
Frame rate                     : 25.000 FPS
Color space                    : YUV
Chroma subsampling             : 4:2:0
Bit depth                      : 8 bits
Scan type                      : Progressive
Bits/(Pixel*Frame)             : 0.198
Stream size                    : 252 MiB (98%)
Color range                    : Limited
Color primaries                : BT.709
Transfer characteristics       : BT.709
Matrix coefficients            : BT.709
Codec configuration box        : avcC

Audio
ID                             : 2
Format                         : AAC LC
Format/Info                    : Advanced Audio Codec Low Complexity
Codec ID                       : mp4a-40-2
Duration                       : 3 min 29 s
Bit rate mode                  : Constant
Bit rate                       : 243 kb/s
Channel(s)                     : 2 channels
Channel layout                 : L R
Sampling rate                  : 48.0 kHz
Frame rate                     : 46.875 FPS (1024 SPF)
Compression mode               : Lossy
Stream size                    : 6.08 MiB (2%)
Default                        : Yes
Alternate group                : 1

</pre>
</div>
<div class="bbCodeBlock bbCodeVfcHH HiddenContent">
<div class="attribution type">Hidden Content:</div>
<blockquote>You must either reply or click 'Like' to see the hidden information contained here.</blockquote>
</div>
<div class="messageTextEndMarker">&nbsp;</div>
</blockquote>
</article>]]></description>
                <author><![CDATA[vitalya3]]></author>
                </item>

                
                <item>
                <title><![CDATA[【Requests】[REQ VID] - Kurtis Mantronik Presents Chamonix – How Did You Know]]></title>
                <link><![CDATA[https://sharemania.us/threads/kurtis-mantronik-presents-chamonix-%E2%80%93-how-did-you-know.222956/]]></link>
                <description><![CDATA[<article>
<blockquote class="messageText SelectQuoteContainer ugc baseHtml">
Hi, I need this clip to do an upscale. Vob is ok, clean if possible.<br>
Thanks<br>
<br>
P.S.<br>
Also<br>
<span style="font-size: 15px"><b>Lee Cabrera Feat. Alex Cartana - Shake It</b></span>
<div class="messageTextEndMarker">&nbsp;</div>
</blockquote>
</article>]]></description>
                <author><![CDATA[djalf77]]></author>
                </item>

                </channel></rss>